<?xml version="1.0" standalone="no"?>
<!DOCTYPE svg PUBLIC "-//W3C//DTD SVG 20010904//EN"
 "http://www.w3.org/TR/2001/REC-SVG-20010904/DTD/svg10.dtd">
<svg version="1.0" xmlns="http://www.w3.org/2000/svg"
 width="256.000000pt" height="256.000000pt" viewBox="0 0 256.000000 256.000000"
 preserveAspectRatio="xMidYMid meet">
<metadata>
Created by potrace 1.14, written by Peter Selinger 2001-2017
</metadata>
<g transform="translate(0.000000,256.000000) scale(0.100000,-0.100000)"
fill="#000000" stroke="none">
<path d="M1495 2217 c-13 -7 -77 -12 -185 -13 -91 -1 -169 -2 -175 -3 -6 -1
-10 -46 -10 -113 l0 -113 -57 -3 -58 -3 0 -39 0 -40 -49 0 -49 0 1 65 c1 52 4
64 16 62 9 -1 17 3 18 8 1 6 -5 9 -13 9 -8 -1 -14 3 -14 8 0 6 -6 6 -14 -1 -9
-8 -14 -31 -14 -64 0 -93 3 -87 -52 -87 l-49 0 3 48 c1 26 -2 53 -7 60 -6 8
-6 12 0 12 6 0 9 13 7 29 -2 18 2 31 11 34 7 3 12 14 10 24 -2 10 -4 21 -4 24
-2 14 -37 15 -50 2 -10 -11 -10 -20 -2 -41 6 -15 12 -56 12 -92 1 -106 4 -100
-46 -100 -25 0 -45 5 -46 10 0 6 -1 27 -1 48 -1 39 -17 60 -30 39 -4 -7 -8 -7
-8 -2 0 6 -30 10 -72 9 -45 -1 -79 4 -88 11 -10 9 -23 10 -37 4 -33 -12 -25
-53 10 -57 16 -2 27 2 27 8 0 7 7 10 15 6 8 -3 15 -2 15 2 0 9 129 6 138 -3 4
-4 7 -22 8 -40 1 -28 -3 -34 -26 -38 -14 -3 -38 -18 -53 -33 -27 -26 -51 -89
-41 -106 3 -4 0 -8 -6 -8 -7 0 -9 -8 -4 -22 12 -40 13 -87 1 -95 -15 -9 -328
-10 -334 0 -2 4 -9 5 -14 2 -5 -4 -9 -1 -9 4 0 16 -26 13 -44 -5 -23 -23 -3
-58 27 -48 12 4 24 10 27 13 3 4 84 7 180 6 l175 0 0 -52 c1 -47 -2 -53 -20
-54 -11 -1 -105 -1 -208 -1 -134 0 -190 -3 -193 -11 -2 -7 -6 -64 -8 -127 -2
-63 -7 -128 -11 -144 -5 -20 -5 -27 3 -22 6 3 13 2 16 -3 3 -5 15 -7 25 -4 21
5 22 46 2 66 -7 7 -11 52 -11 117 l0 106 200 0 c110 0 200 -3 201 -6 1 -3 2
-23 4 -45 2 -45 -3 -67 -15 -60 -12 7 -189 9 -196 3 -3 -4 -19 -2 -35 2 -33
10 -30 21 -33 -136 0 -50 -6 -97 -12 -105 -17 -23 -3 -66 22 -66 23 0 40 43
25 61 -14 17 -20 194 -7 214 4 7 23 11 44 9 20 -2 45 0 54 5 10 5 18 5 18 0 0
-7 42 -8 65 -1 6 2 24 0 41 -3 29 -7 30 -8 30 -62 -1 -54 -2 -56 -28 -56 -36
0 -41 -12 -42 -94 -1 -64 -3 -71 -21 -71 -11 0 -30 6 -43 14 -26 16 -52 1 -52
-30 0 -21 36 -35 54 -20 7 6 16 8 19 4 4 -3 7 -2 7 3 0 6 12 10 27 10 l28 -1
3 83 c2 56 7 82 15 82 20 0 32 -14 35 -40 7 -44 36 -81 79 -101 39 -17 41 -21
39 -56 -1 -21 -8 -48 -14 -60 -16 -29 -15 -30 9 -43 16 -9 25 -8 40 6 18 16
18 17 0 43 -13 19 -16 32 -10 49 5 12 5 22 0 22 -4 0 -8 7 -8 15 0 11 13 15
51 15 l52 0 -1 -67 0 -68 58 0 57 1 0 -46 c0 -25 -7 -55 -15 -67 -13 -18 -13
-22 3 -35 19 -16 31 -17 49 -5 13 8 9 47 -5 56 -5 3 -9 30 -8 59 1 37 -2 52
-11 52 -7 0 -13 5 -13 11 0 7 -4 8 -12 2 -15 -10 -57 -11 -74 -1 -8 6 -11 62
-5 101 0 4 21 7 46 7 45 0 49 -4 46 -42 -2 -18 3 -20 77 -20 18 0 35 -5 38
-10 5 -8 8 -133 4 -155 -1 -5 -1 -29 0 -56 1 -34 -3 -49 -14 -53 -10 -4 -12
-12 -7 -27 5 -12 12 -22 17 -22 5 0 14 -3 20 -7 6 -4 16 3 23 18 9 20 8 28 -4
40 -12 12 -14 40 -12 140 1 77 -2 124 -8 124 -5 0 -5 4 1 8 9 5 8 11 -2 20 -8
7 -14 9 -14 5 0 -4 -22 -6 -49 -5 -42 3 -49 7 -48 23 1 17 10 19 108 19 l106
0 1 -226 c0 -124 3 -228 5 -231 10 -9 42 -10 65 -2 15 6 21 5 17 -1 -3 -6 -2
-10 4 -10 5 0 13 5 16 10 4 6 12 7 18 3 22 -13 54 -12 54 3 0 8 -7 14 -16 13
-9 -1 -44 -1 -78 0 l-62 1 -3 160 c-2 88 0 160 4 160 4 0 3 13 -2 30 -5 16 -5
32 -1 35 5 2 6 16 3 30 -4 24 -3 25 56 25 34 0 64 -4 67 -10 3 -5 1 -10 -4
-10 -6 0 -11 -4 -11 -10 0 -5 9 -10 20 -10 13 0 18 5 13 15 -3 10 9 29 35 53
32 30 41 47 47 85 9 59 31 63 37 7 2 -22 0 -40 -5 -40 -4 0 -5 -6 0 -12 11
-18 10 -52 -2 -60 -7 -5 -7 -8 0 -8 11 0 12 -50 1 -68 -4 -7 -3 -12 1 -12 10
0 10 -41 0 -57 -9 -14 -1 -18 42 -22 25 -2 31 0 25 11 -6 10 -5 11 7 2 9 -8
98 -11 280 -11 146 0 271 -3 277 -7 7 -4 12 -3 12 1 0 7 100 9 153 4 11 -1 8
-89 -5 -110 -15 -24 -4 -51 21 -51 34 0 47 34 23 63 -9 9 -12 20 -9 24 4 3 1
13 -6 21 -6 9 -7 13 -1 9 6 -4 10 2 8 16 -1 12 -3 29 -3 37 -1 13 -25 15 -154
15 -83 -1 -158 -5 -166 -9 -9 -6 -12 -5 -8 1 7 12 -114 10 -133 -2 -8 -5 -11
-4 -7 2 8 12 -72 11 -92 -2 -8 -5 -12 -4 -8 1 6 11 -192 12 -210 1 -17 -11
-20 1 -20 68 l0 60 169 -1 c119 -1 168 2 165 10 -2 7 -54 11 -154 11 -104 0
-154 4 -165 12 -19 16 -23 133 -5 133 7 -1 32 -5 57 -11 25 -5 56 -11 70 -14
14 -3 36 -8 50 -12 14 -3 28 -6 31 -5 4 1 22 -3 40 -9 19 -6 51 -12 72 -15 21
-3 49 -9 61 -14 13 -4 29 -4 36 0 8 5 17 7 21 5 3 -3 15 4 26 15 12 10 24 16
27 13 5 -6 8 5 5 23 -2 17 34 21 177 20 85 -1 154 3 154 7 0 4 8 4 18 -1 9 -4
27 -7 40 -6 12 0 22 -4 23 -10 5 -55 2 -112 -7 -121 -8 -8 -94 -11 -292 -10
-195 0 -278 -3 -276 -10 3 -8 95 -11 284 -11 196 0 277 3 273 10 -4 8 -2 8 5
1 17 -16 21 -73 7 -85 -17 -14 -16 -58 2 -64 34 -14 70 32 40 51 -9 6 -13 43
-13 138 l1 130 -200 0 c-120 0 -204 4 -210 10 -13 13 -16 75 -3 75 5 0 7 3 4
8 -2 4 105 7 237 7 l242 -1 1 -64 c1 -37 -4 -76 -11 -91 -16 -29 -8 -48 23
-54 29 -5 38 31 18 70 -9 16 -12 33 -8 37 4 4 5 33 2 65 l-5 58 -240 1 c-132
1 -247 2 -255 3 -14 1 -19 46 -11 107 1 14 469 13 479 -1 4 -6 13 -10 20 -9 6
1 17 2 23 3 5 0 8 5 4 10 -3 5 0 13 6 17 8 5 4 13 -12 24 -22 18 -54 17 -43
-1 7 -12 24 -11 -237 -12 -140 -1 -230 2 -236 8 -5 6 -8 32 -8 60 l1 50 195 1
c146 0 199 -3 214 -13 28 -19 40 -16 52 10 8 17 7 25 -4 36 -14 13 -63 8 -63
-7 0 -9 -373 -7 -387 1 -6 4 -9 26 -8 49 l2 42 137 0 c75 0 136 2 137 5 0 3 2
29 2 57 1 28 8 58 14 66 7 8 9 24 6 37 -4 17 -11 21 -27 17 -11 -3 -24 -6 -28
-6 -11 0 -10 -48 1 -52 9 -3 14 -34 12 -78 l-1 -26 -122 2 c-150 2 -138 0
-138 23 0 21 -45 70 -66 72 -42 4 -67 1 -139 -16 -44 -10 -84 -20 -90 -21 -5
-1 -23 -5 -40 -8 -16 -3 -54 -12 -84 -21 -30 -8 -58 -12 -62 -9 -4 2 -10 0
-14 -6 -4 -6 -11 -8 -16 -4 -6 3 -5 12 3 22 11 14 10 15 -6 9 -14 -6 -16 -4
-9 5 5 7 9 47 8 89 l-1 77 139 -2 c76 0 141 2 144 7 2 4 9 4 15 1 18 -11 78
-11 78 0 0 7 3 7 8 1 9 -13 65 -14 74 0 5 6 8 6 8 0 0 -5 11 -11 25 -11 25 -2
35 19 15 31 -5 3 -10 2 -10 -2 0 -5 -26 -8 -57 -6 -152 6 -181 6 -191 -1 -12
-7 -14 -2 -14 34 0 71 -8 66 105 65 58 -1 111 -6 124 -13 30 -17 41 -15 48 7
13 41 -24 68 -53 39 -8 -8 -99 -12 -329 -12 l-317 -1 0 -97 1 -98 -108 0 -108
0 1 30 c1 29 2 29 48 28 32 -2 52 3 63 14 13 12 14 18 4 21 -9 4 -9 6 1 6 9 1
10 6 2 20 -5 11 -6 22 -2 25 5 3 6 26 2 50 -4 27 -3 49 4 56 7 7 7 10 0 10
-21 0 -10 28 13 33 13 2 23 0 23 -5 0 -5 6 -6 13 -1 18 11 181 10 189 -2 5 -7
8 -6 8 1 0 15 81 9 90 -6 12 -19 60 -4 60 18 0 17 -18 42 -29 42 -4 0 -15 -6
-26 -13z m146 -156 c9 -1 6 -77 -3 -86 -4 -4 -55 -8 -115 -8 l-108 -2 -1 -112
c0 -62 -3 -115 -7 -119 -3 -4 -14 -3 -24 1 -12 5 -14 9 -6 12 10 3 10 10 2 25
-6 11 -8 22 -5 25 10 11 -37 65 -70 81 -19 8 -34 18 -35 21 -1 9 -1 112 0 141
l1 25 183 -1 c100 -1 185 -2 188 -3z"/>
<path d="M988 2178 c-2 -13 3 -27 10 -33 6 -5 13 -31 15 -56 2 -46 2 -47 -26
-45 -20 2 -26 -2 -22 -12 3 -7 5 -16 5 -18 0 -3 9 0 19 6 14 7 21 6 24 -3 3
-7 9 -1 15 13 6 17 6 27 -2 32 -8 6 -8 8 1 8 8 0 10 12 6 35 -3 21 -1 35 5 35
16 0 23 31 11 46 -19 23 -57 17 -61 -8z"/>
<path d="M2136 1984 c-16 -7 -55 -14 -87 -14 -41 0 -59 -4 -59 -13 0 -8 18
-12 62 -10 35 1 69 -4 76 -10 15 -12 60 -22 49 -11 -3 4 -2 14 2 23 6 10 5 23
-3 33 -11 15 -15 15 -40 2z"/>
<path d="M1960 1960 c0 -19 3 -21 12 -12 9 9 9 15 0 24 -9 9 -12 7 -12 -12z"/>
<path d="M273 1871 c-15 -9 -23 -39 -12 -43 5 -2 11 -25 14 -52 3 -27 8 -52
11 -55 3 -3 57 -7 119 -7 81 -1 112 2 109 10 -3 7 -40 11 -107 11 l-102 0 -3
36 c-2 22 2 40 11 48 29 23 -10 73 -40 52z"/>
<path d="M1269 995 c-9 -8 3 -76 13 -73 5 2 9 7 9 11 -1 4 -1 21 -1 37 0 27
-9 38 -21 25z"/>
<path d="M1260 900 c0 -13 11 -13 30 0 12 8 11 10 -7 10 -13 0 -23 -4 -23 -10z"/>
<path d="M1275 881 c-12 -12 -7 -81 6 -81 13 0 15 13 9 53 -3 27 -8 35 -15 28z"/>
<path d="M1267 771 c4 -17 17 -18 184 -17 98 0 179 -2 179 -6 0 -4 7 -5 16 -1
23 8 156 10 174 2 11 -5 15 -24 15 -71 0 -49 -3 -63 -15 -63 -18 0 -31 -15
-23 -28 2 -4 11 -3 19 4 10 8 14 8 14 1 0 -6 6 -9 13 -6 7 2 13 19 13 37 -1
27 3 32 21 31 13 -1 20 3 17 7 -3 5 0 9 5 9 6 0 11 -4 11 -9 0 -10 32 -7 50 4
6 3 10 2 10 -3 0 -5 20 -8 45 -8 25 1 45 5 45 11 0 5 7 0 15 -12 16 -23 42
-24 56 -2 12 19 11 25 -7 43 -14 14 -17 14 -39 0 -14 -9 -32 -14 -40 -10 -8 3
-15 1 -15 -4 0 -8 -38 -5 -67 5 -7 2 -13 0 -13 -5 0 -5 -6 -8 -12 -6 -47 15
-69 16 -62 4 6 -10 5 -11 -8 -1 -9 8 -14 27 -13 52 1 29 -2 40 -14 43 -9 2
-136 3 -283 2 -147 0 -265 3 -262 8 3 4 -4 8 -14 8 -15 0 -19 -5 -15 -19z"/>
<path d="M1631 616 c-26 -31 25 -69 54 -39 9 8 22 12 30 9 19 -7 31 12 16 27
-8 8 -11 8 -11 -2 0 -10 -6 -9 -25 3 -30 20 -49 20 -64 2z"/>
<path d="M1320 611 c0 -6 -1 -14 -2 -17 -2 -4 19 -7 47 -8 41 0 50 3 53 18 3
13 0 16 -9 10 -16 -10 -61 -10 -77 0 -7 4 -12 2 -12 -3z"/>
<path d="M1443 613 c-7 -3 -13 -12 -13 -21 0 -15 2 -15 10 -2 8 13 10 13 10
-2 0 -9 6 -19 13 -21 8 -4 9 -8 2 -14 -6 -4 -10 -37 -9 -73 3 -85 2 -82 14
-75 6 3 10 2 10 -4 0 -7 8 -7 25 -1 18 7 25 6 25 -3 0 -9 2 -9 8 0 5 8 13 9
22 3 9 -6 20 -4 29 3 11 9 15 9 18 -1 3 -6 9 -10 14 -6 5 3 9 0 9 -6 0 -6 12
-10 28 -8 19 2 28 9 30 25 4 28 -30 49 -50 30 -7 -7 -35 -12 -63 -12 -27 0
-59 -4 -70 -9 -11 -5 -17 -5 -13 -1 4 4 0 14 -10 21 -11 9 -13 13 -4 14 8 0
10 5 6 12 -12 19 -12 48 0 48 7 0 7 3 1 8 -11 8 -14 64 -3 72 10 8 -25 28 -39
23z"/>
<path d="M1750 597 c0 -7 8 -13 18 -14 10 -1 19 5 19 13 0 8 -9 14 -19 14 -10
0 -18 -6 -18 -13z"/>
</g>
</svg>
